<svg width="144" height="101" viewBox="0 0 144 101" fill="none" xmlns="http://www.w3.org/2000/svg">
<g clip-path="url(#clip0_64_69)">
<path d="M59.9602 73.8983C59.9602 79.1553 59.1549 83.4742 57.5441 86.8549C55.9334 90.2356 53.712 92.9615 50.8977 95.0324C48.0745 97.1033 44.4637 98.9884 40.0563 100.696L35.4277 90.5454C37.9854 89.3595 39.9944 88.2001 41.437 87.0496C42.8795 85.8991 43.9946 84.3592 44.7911 82.421C45.5788 80.4828 45.9771 77.934 45.9771 74.7834V26.8955H59.9691V73.8895L59.9602 73.8983ZM59.0221 2.31873C60.6328 3.85864 61.4382 5.81452 61.4382 8.17749C61.4382 10.5405 60.6328 12.4963 59.0221 14.0363C57.4114 15.585 55.3582 16.355 52.8624 16.355C50.3667 16.355 48.3312 15.585 46.7559 14.0363C45.1805 12.4963 44.3929 10.5405 44.3929 8.17749C44.3929 5.81452 45.1805 3.85864 46.7559 2.31873C48.3312 0.778809 50.3667 0 52.8624 0C55.3582 0 57.4114 0.769959 59.0221 2.31873Z" fill="#262F58"/>
<path d="M110.016 31.6303L104.697 39.6131C100.298 36.8519 95.9617 35.4713 91.6871 35.4713C89.3861 35.4713 87.6161 35.8961 86.3682 36.7545C85.1204 37.613 84.492 38.7635 84.492 40.2061C84.492 41.2592 84.7664 42.1442 85.3328 42.8699C85.8903 43.5956 86.9435 44.286 88.4834 44.9409C90.0233 45.5958 92.3421 46.3834 95.4307 47.3038C100.944 48.8172 105.051 50.835 107.75 53.3662C110.441 55.8973 111.786 59.3577 111.786 63.765C111.786 67.2431 110.786 70.2699 108.786 72.8275C106.777 75.3852 104.068 77.3411 100.652 78.6863C97.2362 80.0315 93.4306 80.7041 89.2268 80.7041C85.023 80.7041 80.8192 80.0315 77.2084 78.6863C73.5975 77.3411 70.5089 75.4826 67.9512 73.1196L74.8454 65.4377C79.2439 68.8538 83.9079 70.5619 88.8374 70.5619C91.4659 70.5619 93.5457 70.0575 95.0944 69.0308C96.6343 68.0131 97.4132 66.6148 97.4132 64.8447C97.4132 63.4641 97.1211 62.3844 96.5281 61.5968C95.9352 60.8091 94.8555 60.0657 93.2802 59.3842C91.7048 58.7028 89.2445 57.8886 85.8903 56.9682C80.6334 55.5256 76.7393 53.4724 74.217 50.8085C71.6859 48.1446 70.4204 44.8435 70.4204 40.9052C70.4204 37.9493 71.27 35.2854 72.978 32.9224C74.6861 30.5595 77.1022 28.7009 80.2174 27.3557C83.3326 26.0105 86.97 25.3379 91.103 25.3379C98.4575 25.3379 104.768 27.4442 110.025 31.6392L110.016 31.6303Z" fill="#262F58"/>
<path d="M133.115 6.00037C135.381 7.93854 136.513 11.0715 136.513 15.408V40.5335C136.513 43.1619 137.124 45.0293 138.337 46.1444C139.549 47.2595 141.443 47.8171 144.001 47.8171V52.7466C141.443 52.7466 139.549 53.3042 138.337 54.4193C137.124 55.5344 136.513 57.3752 136.513 59.9329V85.0583C136.513 89.3949 135.381 92.5278 133.115 94.466C130.849 96.4041 127.318 97.3688 122.521 97.3688V92.9349C125.61 92.9349 127.805 92.3242 129.124 91.1118C130.433 89.8993 131.097 87.9435 131.097 85.253V60.3223C131.097 57.0389 131.672 54.7202 132.823 53.375C133.974 52.0297 135.894 50.9943 138.584 50.2686C135.956 49.5429 134.053 48.4986 132.867 47.1179C131.681 45.7373 131.097 43.4363 131.097 40.2237V15.2133C131.097 12.5229 130.442 10.567 129.124 9.35456C127.805 8.14209 125.61 7.53144 122.521 7.53144V3.09753C127.318 3.09753 130.849 4.07105 133.115 6.00037Z" fill="#F6D117"/>
<path d="M21.4792 7.53144C18.3905 7.53144 16.1957 8.14209 14.877 9.35456C13.5584 10.567 12.9034 12.5229 12.9034 15.2133V40.2414C12.9034 43.4628 12.3105 45.755 11.1334 47.1356C9.95636 48.5163 8.04474 49.5694 5.41626 50.2863C8.10669 51.012 10.0272 52.0474 11.1777 53.3927C12.3282 54.7379 12.9034 57.0566 12.9034 60.34V85.2707C12.9034 87.9612 13.5584 89.917 14.877 91.1295C16.1868 92.342 18.3905 92.9526 21.4792 92.9526V97.3865C16.6205 97.3865 13.0716 96.413 10.8414 94.4837C8.61115 92.5455 7.48719 89.4126 7.48719 85.076V59.9506C7.48719 57.3929 6.87653 55.5521 5.66406 54.437C4.44275 53.3219 2.55768 52.7643 0 52.7643V47.8348C2.55768 47.8348 4.4516 47.2772 5.66406 46.1621C6.87653 45.047 7.48719 43.1708 7.48719 40.5512V15.408C7.48719 11.0715 8.6023 7.93854 10.8414 6.00037C13.0716 4.0622 16.6205 3.09753 21.4792 3.09753V7.53144Z" fill="#F6D117"/>
</g>
<defs>
<clipPath id="clip0_64_69">
<rect width="144" height="100.696" fill="white"/>
</clipPath>
</defs>
</svg>
