<?xml version="1.0" standalone="no"?>
<!DOCTYPE svg PUBLIC "-//W3C//DTD SVG 20010904//EN"
 "http://www.w3.org/TR/2001/REC-SVG-20010904/DTD/svg10.dtd">
<svg version="1.0" xmlns="http://www.w3.org/2000/svg"
 width="1152.000000pt" height="1152.000000pt" viewBox="0 0 1152.000000 1152.000000"
 preserveAspectRatio="xMidYMid meet">
<metadata>
Created by potrace 1.14, written by Peter Selinger 2001-2017
</metadata>
<g transform="translate(0.000000,1152.000000) scale(0.100000,-0.100000)"
fill="#000000" stroke="none">
<path d="M4119 9756 c-2 -2 -22 -7 -44 -10 -22 -4 -56 -12 -75 -18 -45 -14
-59 -18 -66 -17 -4 0 -10 -3 -13 -8 -3 -4 -27 -19 -53 -33 -26 -13 -63 -39
-83 -57 -20 -18 -39 -33 -41 -33 -28 0 -151 -206 -171 -285 -21 -86 -25 -263
-8 -325 4 -14 7 -33 7 -42 -1 -10 3 -20 9 -23 5 -4 9 -14 9 -24 0 -58 143
-244 237 -309 95 -65 230 -104 378 -108 119 -3 190 7 275 37 30 11 60 21 65
22 29 6 138 88 195 146 63 65 134 180 144 232 3 13 5 24 6 24 3 0 11 39 18 90
14 94 4 217 -25 305 -14 44 -53 130 -63 140 -3 3 -17 21 -32 41 -47 63 -121
128 -193 169 -44 25 -142 63 -200 77 -26 6 -270 14 -276 9z"/>
<path d="M1637 9514 c-1 -1 -45 -5 -97 -8 -52 -3 -110 -8 -127 -11 -18 -3 -45
-7 -60 -9 -89 -13 -243 -58 -270 -79 -7 -5 -13 -7 -13 -3 0 11 -148 -72 -176
-100 -7 -6 -25 -21 -40 -35 -106 -90 -194 -259 -229 -439 -12 -66 -16 -96 -21
-170 -3 -46 -7 -86 -9 -88 -2 -3 0 -12 5 -22 5 -10 6 -20 3 -24 -4 -4 -6 -32
-4 -64 1 -31 2 -64 1 -72 0 -8 0 -33 0 -55 0 -22 0 -49 -1 -60 -1 -33 -1 -68
0 -100 1 -46 1 -118 0 -140 -1 -33 -1 -68 0 -100 0 -16 1 -50 1 -75 0 -25 0
-49 0 -55 0 -5 -1 -49 -2 -96 -1 -47 2 -91 6 -97 4 -7 4 -12 -1 -12 -10 0 -9
-52 1 -68 4 -7 4 -12 -1 -12 -10 0 -9 -52 1 -68 4 -7 4 -12 -1 -12 -10 0 -9
-52 1 -68 4 -7 4 -12 -1 -12 -10 0 -9 -52 1 -68 4 -7 4 -12 -1 -12 -10 0 -9
-52 1 -68 4 -7 4 -12 -1 -12 -10 0 -9 -52 1 -68 4 -7 4 -12 -1 -12 -9 0 -9
-52 0 -66 3 -6 2 -16 -2 -23 -5 -7 -5 -28 -1 -46 4 -18 4 -39 0 -45 -4 -7 -6
-29 -3 -49 2 -20 4 -45 3 -56 -2 -27 -2 -64 -1 -100 0 -16 1 -50 1 -75 0 -25
0 -49 1 -55 1 -31 -10 -207 -16 -245 -17 -106 -99 -260 -147 -276 -10 -3 -16
-9 -13 -13 5 -8 -146 -83 -161 -80 -5 1 -12 0 -16 -1 -50 -16 -126 -27 -200
-29 l-48 -1 0 -195 c0 -149 3 -195 13 -196 6 0 30 -2 52 -3 23 -1 46 -6 53
-10 7 -4 12 -2 12 4 0 6 5 8 11 5 5 -4 25 -9 42 -12 149 -22 297 -113 341
-209 48 -104 46 -98 65 -205 4 -25 6 -54 5 -63 -1 -9 2 -16 7 -16 5 0 5 -10 1
-22 -5 -13 -7 -41 -5 -63 2 -22 3 -49 3 -60 -2 -30 -2 -67 -1 -100 1 -46 1
-118 0 -140 -1 -33 -1 -68 0 -100 1 -46 1 -118 0 -140 -1 -33 -1 -68 0 -100 1
-46 1 -118 0 -140 -1 -33 -1 -68 0 -100 0 -16 1 -50 1 -75 0 -25 0 -49 0 -55
0 -5 -1 -49 -2 -96 -1 -47 2 -91 6 -97 4 -7 4 -12 -1 -12 -10 0 -9 -52 1 -68
4 -7 4 -12 -1 -12 -10 0 -9 -52 1 -68 4 -7 4 -12 -1 -12 -10 0 -9 -52 1 -68 4
-7 4 -12 -1 -12 -10 0 -9 -52 1 -68 4 -7 4 -12 -1 -12 -10 0 -9 -52 1 -68 4
-7 4 -12 -1 -12 -10 0 -9 -52 1 -68 4 -7 4 -12 -1 -12 -9 0 -9 -52 0 -66 3 -6
2 -16 -2 -23 -5 -7 -5 -28 -1 -46 4 -18 4 -38 0 -45 -6 -9 -6 -75 -1 -75 1 0
3 -47 6 -105 5 -130 10 -168 29 -255 33 -149 115 -299 215 -394 34 -32 163
-121 175 -121 4 0 25 -9 49 -19 45 -20 76 -32 92 -37 6 -1 39 -10 75 -19 36
-8 74 -18 85 -21 11 -3 43 -7 70 -9 28 -2 50 -5 50 -6 0 -3 70 -8 177 -12 l97
-5 -2 177 -2 176 -55 2 c-184 6 -323 41 -420 107 -52 35 -55 37 -96 91 -43 55
-78 132 -90 200 -2 14 -7 37 -11 53 -3 15 -7 500 -9 1077 -1 578 -5 1104 -8
1170 -4 100 -14 162 -40 270 -1 6 -12 31 -24 58 -11 26 -22 51 -23 55 -7 34
-184 192 -214 192 -4 0 -19 8 -33 19 -30 20 -161 71 -205 78 -15 3 -29 9 -32
13 -6 10 51 31 59 23 3 -4 6 -2 6 4 0 6 13 13 29 16 15 3 55 18 87 33 176 82
280 181 332 314 35 90 45 137 58 267 3 34 7 558 8 1165 1 607 5 1112 8 1123 3
11 9 38 13 60 10 58 57 164 88 199 56 64 85 87 141 115 96 49 241 79 387 80
l47 1 0 175 c0 96 -2 175 -6 176 -15 2 -73 5 -75 3z"/>
<path d="M9805 9510 c-2 -3 -4 -83 -4 -176 1 -123 4 -171 12 -172 7 0 53 -3
102 -7 86 -6 140 -12 140 -15 0 -1 11 -3 25 -6 103 -18 213 -77 276 -147 46
-52 81 -107 67 -107 -5 0 -2 -4 5 -8 7 -5 14 -19 17 -32 2 -12 9 -38 16 -57 6
-19 13 -46 16 -61 3 -15 7 -511 9 -1102 3 -1218 5 -1295 40 -1392 7 -21 11
-38 9 -38 -6 0 62 -134 82 -159 18 -24 25 -30 91 -88 43 -38 223 -133 252
-133 11 0 20 -4 20 -10 0 -5 3 -9 8 -9 14 3 73 -14 78 -22 4 -7 -11 -13 -56
-24 -3 -1 -18 -7 -35 -14 -16 -7 -42 -15 -57 -18 -16 -3 -28 -9 -28 -14 0 -5
-7 -9 -15 -9 -8 0 -37 -13 -65 -30 -28 -16 -53 -30 -55 -30 -9 0 -51 -36 -105
-90 -96 -96 -145 -233 -156 -440 -3 -52 -7 -579 -8 -1170 -2 -591 -6 -1093
-10 -1115 -25 -133 -88 -247 -172 -315 -33 -26 -74 -51 -74 -44 0 4 -6 1 -13
-5 -42 -34 -197 -66 -363 -73 l-52 -3 2 -175 1 -175 73 2 c121 2 233 14 327
33 28 6 60 12 73 15 99 19 297 113 358 170 12 11 30 27 40 36 44 37 123 144
124 167 0 6 4 12 8 12 8 0 24 36 52 120 34 103 51 203 56 325 2 50 4 92 5 95
3 14 -1 114 -5 118 -3 2 -1 12 4 21 5 10 5 33 1 54 -5 20 -6 38 -3 41 3 4 4
27 3 54 -2 57 -2 59 2 97 1 17 -1 42 -4 57 -4 14 -4 29 -1 33 7 7 5 115 -2
123 -3 2 -1 12 4 21 5 10 5 33 1 54 -5 20 -6 38 -3 42 7 6 5 195 -2 202 -3 3
-1 13 4 22 5 10 5 33 1 54 -5 20 -6 38 -3 41 3 4 4 27 3 54 -2 57 -2 59 2 97
1 17 -1 42 -4 57 -4 14 -4 29 -1 33 7 7 5 115 -2 123 -3 2 -1 12 4 21 5 10 5
33 1 54 -5 20 -6 38 -3 41 3 4 4 27 3 54 -2 57 -2 59 2 97 1 17 -1 42 -4 57
-4 14 -4 29 -1 33 3 3 5 31 3 63 -1 31 -2 63 -1 70 1 25 2 48 0 67 -3 44 13
230 23 255 3 8 13 39 22 68 17 54 65 126 113 168 30 26 138 83 172 89 12 2 29
6 38 9 40 12 135 24 205 25 l27 1 0 195 c0 179 -1 195 -17 196 -73 3 -182 15
-203 22 -8 2 -35 10 -60 17 -70 19 -210 108 -210 134 0 4 -9 16 -19 27 -17 19
-56 111 -67 159 -2 11 -6 30 -9 43 -3 12 -8 63 -10 113 -2 50 -5 95 -6 100 -1
5 0 14 1 19 1 6 1 30 1 55 -2 57 -2 59 2 95 1 17 -1 42 -4 57 -4 14 -4 29 -1
33 7 7 5 115 -2 123 -3 2 -1 12 4 21 5 10 5 33 1 54 -5 20 -6 38 -3 41 3 4 4
27 3 54 -2 57 -2 59 2 97 1 17 -1 42 -4 57 -4 14 -4 29 -1 33 7 7 5 115 -2
123 -3 2 -1 12 4 21 5 10 5 33 1 54 -5 20 -6 38 -3 42 7 6 5 195 -2 202 -3 3
-1 13 4 22 5 10 5 33 1 54 -5 20 -6 38 -3 41 3 4 4 27 3 54 -2 57 -2 59 2 97
1 17 -1 42 -4 57 -4 14 -4 29 -1 33 7 7 5 115 -2 123 -3 2 -1 12 4 21 5 10 5
33 1 54 -5 20 -6 38 -3 41 3 4 4 27 3 54 -2 50 -2 53 0 105 2 47 -10 248 -15
256 -2 3 -7 25 -10 47 -10 64 -13 75 -41 154 -51 141 -131 254 -246 346 -61
49 -236 126 -339 148 -126 28 -162 33 -280 41 -144 10 -181 11 -185 5z"/>
<path d="M7137 7744 c-1 -1 -40 -5 -87 -8 -47 -3 -94 -8 -105 -10 -11 -2 -42
-7 -69 -10 -27 -4 -77 -13 -110 -21 -34 -8 -71 -16 -82 -18 -10 -2 -26 -6 -34
-10 -8 -3 -49 -15 -90 -27 -127 -38 -411 -182 -442 -225 -4 -5 -8 -7 -8 -2 0
4 -8 -1 -19 -10 -10 -10 -52 -47 -93 -83 -69 -61 -158 -168 -221 -267 -15 -24
-24 -43 -20 -43 5 0 3 -4 -2 -8 -14 -9 -58 -112 -78 -182 -30 -105 -41 -184
-41 -305 0 -128 9 -206 34 -308 22 -91 23 -92 70 -192 19 -38 34 -72 35 -75 4
-15 41 -70 48 -70 4 0 7 -5 7 -11 0 -21 110 -143 197 -219 62 -55 169 -130
183 -130 6 0 10 -3 10 -7 0 -5 10 -13 23 -19 12 -6 58 -29 102 -51 94 -48 126
-62 220 -98 39 -15 79 -31 90 -35 37 -16 185 -58 185 -53 0 3 6 1 13 -5 7 -6
24 -13 37 -15 26 -5 217 -60 285 -81 6 -2 13 -4 18 -5 4 0 23 -7 42 -15 20 -9
36 -15 38 -15 12 1 137 -47 215 -82 224 -103 304 -211 303 -411 0 -114 -31
-196 -103 -274 -38 -41 -166 -124 -192 -124 -7 0 -16 -3 -20 -7 -4 -5 -11 -8
-14 -9 -4 0 -27 -6 -52 -13 -41 -12 -57 -16 -115 -24 -11 -1 -26 -6 -32 -10
-7 -5 -13 -4 -13 1 0 5 -16 6 -37 3 -44 -8 -219 -6 -278 2 -22 4 -62 9 -90 13
-49 6 -65 9 -105 19 -11 3 -28 7 -37 9 -52 12 -147 42 -213 68 -90 36 -266
123 -280 139 -3 3 -12 8 -20 11 -8 3 -58 36 -110 72 l-95 66 -38 -42 c-21 -24
-62 -70 -90 -102 -29 -33 -78 -86 -109 -120 -32 -33 -75 -80 -97 -105 -21 -25
-60 -68 -85 -96 -42 -45 -65 -70 -114 -127 -13 -15 -11 -20 19 -48 19 -17 70
-58 114 -91 44 -33 88 -66 98 -74 9 -8 21 -15 25 -15 4 0 30 -15 57 -33 51
-34 295 -160 295 -152 0 2 24 -6 53 -19 100 -44 346 -121 355 -111 3 3 11 0
19 -7 7 -6 16 -8 19 -5 3 3 17 1 31 -4 27 -10 174 -33 293 -46 155 -17 589 -8
715 13 17 3 41 7 55 9 176 25 511 133 620 200 19 12 37 22 40 22 12 -1 190
116 190 126 0 4 5 7 10 7 28 0 212 188 277 282 82 119 156 285 177 398 3 14 7
36 10 50 10 43 18 152 17 232 -2 441 -167 746 -526 974 -79 51 -215 123 -295
158 -83 36 -116 49 -125 52 -5 1 -69 23 -140 48 -72 25 -142 47 -155 50 -29 5
-128 34 -150 43 -8 4 -17 7 -20 8 -56 15 -130 38 -145 44 -11 5 -58 21 -105
36 -47 15 -96 32 -110 38 -14 6 -27 11 -30 12 -51 17 -195 87 -198 97 -2 4 -9
8 -15 8 -24 0 -113 96 -135 145 -20 47 -39 121 -34 137 1 4 4 30 6 56 8 90 63
175 151 234 40 27 77 44 140 64 17 6 109 24 145 29 44 6 221 6 278 0 97 -11
120 -14 172 -24 175 -33 364 -102 560 -204 63 -33 122 -66 131 -73 8 -8 22
-14 30 -13 11 0 346 488 411 599 17 29 17 29 -15 52 -18 12 -34 25 -37 28 -10
13 -134 93 -213 139 -152 87 -356 171 -537 221 -25 7 -52 15 -60 18 -8 3 -19
4 -23 3 -5 -1 -25 3 -45 8 -20 6 -57 13 -82 16 -25 3 -52 8 -60 10 -21 6 -84
14 -165 21 -67 6 -403 13 -408 8z"/>
<path d="M3688 7619 c-8 -5 -12 -635 -13 -2020 -2 -1108 -6 -2030 -9 -2049
-29 -168 -41 -217 -70 -301 -35 -102 -169 -324 -188 -313 -4 3 -8 -2 -8 -10 0
-9 -3 -16 -7 -16 -5 0 -28 -19 -53 -41 -80 -74 -206 -153 -402 -252 -54 -27
-98 -53 -98 -58 0 -4 20 -52 45 -105 25 -53 45 -100 45 -105 0 -5 4 -9 8 -9 5
0 9 -6 9 -12 1 -13 132 -303 158 -349 8 -14 12 -29 8 -33 -3 -3 -1 -6 5 -6 7
0 12 -6 13 -12 1 -23 74 -164 84 -163 6 1 21 6 35 12 14 6 48 20 76 31 59 24
120 51 219 98 39 18 72 32 75 32 3 -1 24 11 47 25 24 15 45 27 47 27 18 0 318
187 324 202 2 4 8 8 14 8 24 0 207 162 288 256 78 90 200 266 200 290 0 8 4
14 8 14 5 0 14 16 22 35 8 19 17 35 22 35 4 0 8 7 8 15 0 9 11 38 25 65 14 28
22 50 18 50 -5 0 -3 4 2 8 14 10 73 197 89 282 2 14 9 47 15 73 6 27 9 52 6
57 -3 5 -2 11 3 14 4 2 9 22 10 44 2 22 5 50 7 63 10 51 18 222 19 389 1 104
5 178 11 182 7 5 7 8 0 8 -6 0 -9 43 -8 112 2 62 3 118 3 123 0 6 -1 83 -3
173 -1 89 2 162 7 162 5 0 4 6 -1 13 -5 6 -8 80 -6 162 1 83 3 157 3 165 0 8
-1 75 -3 148 -1 72 2 132 6 132 5 0 5 5 1 12 -11 17 -11 248 0 248 5 0 4 6 -1
13 -5 6 -7 98 -6 202 1 105 3 199 3 210 0 18 0 253 0 280 0 6 -1 83 -3 173 -1
89 2 162 7 162 5 0 4 6 -1 13 -5 6 -8 80 -6 162 1 83 3 157 3 165 0 8 -1 75
-3 148 -1 72 2 132 7 132 5 0 4 6 -1 13 -5 6 -7 59 -6 117 3 123 3 122 1 223
-1 47 -5 77 -12 78 -55 5 -1090 2 -1098 -2z"/>
</g>
</svg>
