<svg fill="none" height="101" viewBox="0 0 144 101" width="144" xmlns="http://www.w3.org/2000/svg" xmlns:xlink="http://www.w3.org/1999/xlink"><clipPath id="a"><path d="m0 0h144v100.696h-144z"/></clipPath><g clip-path="url(#a)"><path d="m59.9602 73.8983c0 5.257-.8053 9.5759-2.4161 12.9566-1.6107 3.3807-3.8321 6.1066-6.6464 8.1775-2.8232 2.0709-6.434 3.956-10.8414 5.6636l-4.6286-10.1506c2.5577-1.1859 4.5667-2.3453 6.0093-3.4958 1.4425-1.1505 2.5576-2.6904 3.3541-4.6286.7877-1.9382 1.186-4.487 1.186-7.6376v-47.8879h13.992v46.994zm-.9381-71.57957c1.6107 1.53991 2.4161 3.49579 2.4161 5.85876 0 2.36301-.8054 4.31881-2.4161 5.85881-1.6107 1.5487-3.6639 2.3187-6.1597 2.3187-2.4957 0-4.5312-.77-6.1065-2.3187-1.5754-1.54-2.363-3.4958-2.363-5.85881 0-2.36297.7876-4.31885 2.363-5.85876 1.5753-1.539921 3.6108-2.31873 6.1065-2.31873 2.4958 0 4.549.769959 6.1597 2.31873z" fill="#fff"/><path d="m110.016 31.6303-5.319 7.9828c-4.399-2.7612-8.7353-4.1418-13.0099-4.1418-2.301 0-4.071.4248-5.3189 1.2832-1.2478.8585-1.8762 2.009-1.8762 3.4516 0 1.0531.2744 1.9381.8408 2.6638.5575.7257 1.6107 1.4161 3.1506 2.071s3.8587 1.4425 6.9473 2.3629c5.5133 1.5134 9.6203 3.5312 12.3193 6.0624 2.691 2.5311 4.036 5.9915 4.036 10.3988 0 3.4781-1 6.5049-3 9.0625-2.009 2.5577-4.718 4.5136-8.134 5.8588-3.4158 1.3452-7.2214 2.0178-11.4252 2.0178s-8.4076-.6726-12.0184-2.0178c-3.6109-1.3452-6.6995-3.2037-9.2572-5.5667l6.8942-7.6819c4.3985 3.4161 9.0625 5.1242 13.992 5.1242 2.6285 0 4.7083-.5044 6.257-1.5311 1.5399-1.0177 2.3188-2.416 2.3188-4.1861 0-1.3806-.2921-2.4603-.8851-3.2479-.5929-.7877-1.6726-1.5311-3.2479-2.2126-1.5754-.6814-4.0357-1.4956-7.3899-2.416-5.2569-1.4426-9.151-3.4958-11.6733-6.1597-2.5311-2.6639-3.7966-5.965-3.7966-9.9033 0-2.9559.8496-5.6198 2.5576-7.9828 1.7081-2.3629 4.1242-4.2215 7.2394-5.5667s6.7526-2.0178 10.8856-2.0178c7.3545 0 13.665 2.1063 18.922 6.3013z" fill="#fff"/><g fill="#f6d117"><path d="m133.115 6.00049c2.266 1.93817 3.398 5.07111 3.398 9.40761v25.1255c0 2.6285.611 4.4958 1.824 5.6109 1.212 1.1152 3.106 1.6727 5.664 1.6727v4.9295c-2.558 0-4.452.5576-5.664 1.6727-1.213 1.1151-1.824 2.9559-1.824 5.5136v25.1254c0 4.3366-1.132 7.4695-3.398 9.4077s-5.797 2.9028-10.594 2.9028v-4.4339c3.089 0 5.284-.6106 6.603-1.8231 1.309-1.2125 1.973-3.1683 1.973-5.8588v-24.9307c0-3.2834.575-5.6021 1.726-6.9473s3.071-2.3807 5.761-3.1064c-2.628-.7257-4.531-1.77-5.717-3.1506-1.186-1.3807-1.77-3.6817-1.77-6.8943v-25.0104c0-2.6904-.655-4.6463-1.973-5.85872-1.319-1.21247-3.514-1.82312-6.603-1.82312v-4.4339c4.797 0 8.328.97351 10.594 2.90283z"/><path d="m21.4792 7.53156c-3.0887 0-5.2835.61065-6.6022 1.82312-1.3186 1.21242-1.9736 3.16832-1.9736 5.85872v25.0281c0 3.2215-.5929 5.5136-1.77 6.8943-1.17704 1.3806-3.08866 2.4337-5.71714 3.1506 2.69043.7257 4.61094 1.7612 5.76144 3.1064s1.7257 3.6639 1.7257 6.9473v24.9307c0 2.6905.655 4.6464 1.9736 5.8588 1.3098 1.2125 3.5135 1.8231 6.6022 1.8231v4.4339c-4.8587 0-8.4076-.9735-10.6378-2.9028-2.23025-1.9382-3.35421-5.0711-3.35421-9.4077v-25.1254c0-2.5577-.61066-4.3985-1.82313-5.5136-1.22131-1.1151-3.10638-1.6727-5.66406-1.6727v-4.9295c2.55768 0 4.4516-.5575 5.66406-1.6726 1.21247-1.1152 1.82313-2.9914 1.82313-5.611v-25.1432c0-4.3365 1.11511-7.46944 3.35421-9.40761 2.2302-1.93817 5.7791-2.90283 10.6378-2.90283z"/></g></g></svg>