<svg width="144" height="101" viewBox="0 0 72 50" fill="none" xmlns="http://www.w3.org/2000/svg">
<path d="M29.9791 36.6936C29.9791 39.3039 29.5765 41.4484 28.7711 43.1271C27.9657 44.8058 26.855 46.1593 25.4479 47.1876C24.0363 48.2159 22.2309 49.1519 20.0272 50L17.7129 44.9596C18.9917 44.3707 19.9962 43.795 20.7175 43.2238C21.4388 42.6525 21.9963 41.8879 22.3946 40.9255C22.7884 39.9631 22.9876 38.6975 22.9876 37.1331V13.3547H29.9836V36.6892L29.9791 36.6936ZM29.5101 1.15134C30.3154 1.91598 30.7181 2.88715 30.7181 4.06047C30.7181 5.23378 30.3154 6.20496 29.5101 6.96959C28.7047 7.73862 27.6781 8.12093 26.4302 8.12093C25.1824 8.12093 24.1646 7.73862 23.377 6.96959C22.5893 6.20496 22.1955 5.23378 22.1955 4.06047C22.1955 2.88715 22.5893 1.91598 23.377 1.15134C24.1646 0.386711 25.1824 0 26.4302 0C27.6781 0 28.7047 0.382317 29.5101 1.15134Z" fill="#F04444"/>
<path d="M55.0069 15.7058L52.3474 19.6695C50.1482 18.2985 47.9799 17.6129 45.8426 17.6129C44.6921 17.6129 43.8071 17.8239 43.1831 18.2501C42.5592 18.6764 42.245 19.2477 42.245 19.964C42.245 20.4869 42.3822 20.9264 42.6654 21.2867C42.9442 21.647 43.4708 21.9898 44.2407 22.315C45.0107 22.6402 46.1701 23.0313 47.7144 23.4883C50.4712 24.2398 52.5244 25.2417 53.8741 26.4985C55.2193 27.7553 55.8919 29.4736 55.8919 31.662C55.8919 33.389 55.3919 34.8919 54.3918 36.1619C53.3873 37.4319 52.0332 38.4031 50.3252 39.071C48.6171 39.739 46.7143 40.073 44.6124 40.073C42.5105 40.073 40.4086 39.739 38.6032 39.071C36.7978 38.4031 35.2534 37.4802 33.9746 36.3069L37.4217 32.4925C39.621 34.1888 41.953 35.0369 44.4177 35.0369C45.732 35.0369 46.7719 34.7864 47.5462 34.2767C48.3162 33.7713 48.7056 33.077 48.7056 32.1981C48.7056 31.5126 48.5596 30.9764 48.2631 30.5853C47.9666 30.1942 47.4268 29.8251 46.6391 29.4867C45.8514 29.1484 44.6213 28.7441 42.9442 28.2871C40.3157 27.5708 38.3687 26.5512 37.1075 25.2285C35.842 23.9058 35.2092 22.2667 35.2092 20.3111C35.2092 18.8434 35.634 17.5207 36.488 16.3473C37.3421 15.174 38.5501 14.2512 40.1077 13.5832C41.6653 12.9153 43.484 12.5813 45.5505 12.5813C49.2278 12.5813 52.3828 13.6272 55.0113 15.7101L55.0069 15.7058Z" fill="#F04444"/>
<path d="M66.5566 2.97946C67.6894 3.94185 68.2558 5.49748 68.2558 7.65076V20.1266C68.2558 21.4317 68.5611 22.359 69.1673 22.9127C69.7736 23.4664 70.7205 23.7432 71.9994 23.7432V26.1909C70.7205 26.1909 69.7736 26.4678 69.1673 27.0215C68.5611 27.5752 68.2558 28.4892 68.2558 29.7592V42.235C68.2558 44.3883 67.6894 45.944 66.5566 46.9063C65.4237 47.8687 63.6581 48.3477 61.2598 48.3477V46.1461C62.8041 46.1461 63.9015 45.8429 64.5609 45.2408C65.2158 44.6388 65.5476 43.6676 65.5476 42.3317V29.9526C65.5476 28.3222 65.8353 27.1709 66.4105 26.5029C66.9858 25.835 67.946 25.3208 69.2912 24.9605C67.977 24.6001 67.0256 24.0816 66.4327 23.3961C65.8397 22.7105 65.5476 21.568 65.5476 19.9728V7.55408C65.5476 6.21817 65.2202 5.247 64.5609 4.64496C63.9015 4.04292 62.8041 3.7397 61.2598 3.7397V1.53809C63.6581 1.53809 65.4237 2.02147 66.5566 2.97946Z" fill="#262F58"/>
<path d="M10.7396 3.7397C9.19526 3.7397 8.09784 4.04292 7.43851 4.64496C6.77918 5.247 6.45172 6.21817 6.45172 7.55408V19.9816C6.45172 21.5812 6.15525 22.7193 5.56671 23.4048C4.97818 24.0904 4.02237 24.6133 2.70813 24.9693C4.05335 25.3296 5.01358 25.8438 5.58884 26.5117C6.1641 27.1797 6.45172 28.331 6.45172 29.9614V42.3405C6.45172 43.6764 6.77918 44.6476 7.43851 45.2496C8.09342 45.8517 9.19526 46.1549 10.7396 46.1549V48.3565C8.31025 48.3565 6.5358 47.8731 5.42069 46.9151C4.30557 45.9528 3.74359 44.3971 3.74359 42.2438V29.768C3.74359 28.498 3.43826 27.584 2.83203 27.0303C2.22138 26.4766 1.27884 26.1997 0 26.1997V23.752C1.27884 23.752 2.2258 23.4752 2.83203 22.9215C3.43826 22.3678 3.74359 21.4361 3.74359 20.1354V7.65076C3.74359 5.49748 4.30115 3.94185 5.42069 2.97946C6.5358 2.01708 8.31025 1.53809 10.7396 1.53809V3.7397Z" fill="#262F58"/>
</svg>
